<svg id="svg" version="1.1" xmlns="http://www.w3.org/2000/svg" xmlns:xlink="http://www.w3.org/1999/xlink" width="400" height="400" viewBox="0, 0, 400,400"><g id="svgg"><path id="path0" d="M187.448 0.455 C 187.360 0.598,186.145 0.686,184.748 0.651 C 183.351 0.615,182.209 0.732,182.209 0.909 C 182.209 1.086,181.373 1.196,180.352 1.153 C 179.330 1.110,178.231 1.181,177.908 1.310 C 177.586 1.440,176.178 1.621,174.780 1.714 C 173.382 1.807,171.928 2.007,171.548 2.158 C 171.169 2.310,170.509 2.343,170.083 2.231 C 169.656 2.120,169.202 2.198,169.074 2.406 C 168.945 2.613,168.461 2.747,167.998 2.702 C 167.535 2.657,166.848 2.754,166.471 2.916 C 166.095 3.079,165.534 3.115,165.226 2.996 C 164.917 2.878,164.609 2.911,164.541 3.070 C 164.375 3.461,157.590 4.747,157.145 4.472 C 156.952 4.353,156.794 4.405,156.794 4.588 C 156.794 4.991,152.528 5.933,152.049 5.637 C 151.863 5.522,151.711 5.600,151.711 5.810 C 151.711 6.222,146.669 7.501,146.197 7.209 C 146.040 7.112,145.852 7.214,145.778 7.435 C 145.705 7.656,145.074 7.877,144.377 7.926 C 143.680 7.975,143.110 8.130,143.109 8.270 C 143.108 8.554,139.274 9.600,138.518 9.522 C 138.252 9.495,138.147 9.656,138.286 9.881 C 138.445 10.138,138.227 10.208,137.696 10.069 C 137.232 9.948,136.852 10.027,136.852 10.245 C 136.852 10.463,136.600 10.544,136.291 10.425 C 135.982 10.307,135.675 10.350,135.607 10.521 C 135.421 10.990,130.983 12.556,130.567 12.299 C 130.368 12.176,130.205 12.223,130.205 12.403 C 130.205 12.867,127.827 13.711,127.351 13.417 C 127.127 13.279,127.077 13.369,127.235 13.625 C 127.494 14.043,127.337 14.110,125.806 14.233 C 125.538 14.254,125.230 14.379,125.122 14.509 C 124.716 15.004,121.112 16.407,120.779 16.201 C 120.587 16.082,120.430 16.150,120.430 16.352 C 120.430 16.707,118.893 17.453,117.693 17.680 C 117.370 17.741,117.019 17.901,116.911 18.036 C 116.481 18.577,104.081 24.577,103.857 24.353 C 103.725 24.220,103.617 24.307,103.617 24.545 C 103.617 25.005,98.966 27.634,98.447 27.468 C 98.280 27.414,98.143 27.529,98.143 27.723 C 98.143 28.143,95.421 29.825,94.721 29.838 C 94.453 29.843,94.233 29.969,94.233 30.117 C 94.233 30.504,89.845 33.366,89.253 33.366 C 88.981 33.366,88.759 33.496,88.759 33.655 C 88.759 34.071,84.760 36.885,84.170 36.885 C 83.898 36.885,83.675 37.010,83.675 37.163 C 83.675 37.572,76.371 42.993,76.092 42.791 C 75.962 42.697,75.942 42.736,76.048 42.878 C 76.302 43.218,74.600 44.410,74.096 44.246 C 73.881 44.176,73.828 44.242,73.978 44.392 C 74.320 44.734,69.947 48.337,69.407 48.159 C 69.190 48.087,69.132 48.148,69.278 48.294 C 69.584 48.600,66.880 51.075,66.400 50.929 C 66.224 50.875,66.124 50.968,66.178 51.135 C 66.293 51.493,61.013 56.540,60.655 56.415 C 60.327 56.300,56.327 60.269,56.424 60.612 C 56.534 60.998,51.500 66.295,51.135 66.178 C 50.968 66.124,50.875 66.224,50.929 66.400 C 51.075 66.880,48.600 69.584,48.294 69.278 C 48.148 69.132,48.087 69.190,48.159 69.407 C 48.337 69.947,44.734 74.320,44.392 73.978 C 44.242 73.828,44.176 73.881,44.246 74.096 C 44.410 74.600,43.218 76.302,42.878 76.048 C 42.736 75.942,42.697 75.962,42.791 76.092 C 42.993 76.371,37.572 83.675,37.163 83.675 C 37.010 83.675,36.885 83.898,36.885 84.170 C 36.885 84.760,34.071 88.759,33.655 88.759 C 33.496 88.759,33.366 88.981,33.366 89.253 C 33.366 89.845,30.504 94.233,30.117 94.233 C 29.969 94.233,29.843 94.453,29.838 94.721 C 29.825 95.421,28.143 98.143,27.723 98.143 C 27.529 98.143,27.414 98.280,27.468 98.447 C 27.634 98.966,25.005 103.617,24.545 103.617 C 24.307 103.617,24.220 103.725,24.353 103.857 C 24.577 104.081,18.577 116.481,18.036 116.911 C 17.901 117.019,17.741 117.370,17.680 117.693 C 17.453 118.893,16.707 120.430,16.352 120.430 C 16.150 120.430,16.084 120.590,16.205 120.786 C 16.425 121.142,15.045 124.732,14.540 125.114 C 14.393 125.226,14.254 125.538,14.233 125.806 C 14.110 127.337,14.043 127.494,13.625 127.235 C 13.369 127.077,13.279 127.127,13.417 127.351 C 13.711 127.827,12.867 130.205,12.403 130.205 C 12.223 130.205,12.176 130.368,12.299 130.567 C 12.556 130.983,10.990 135.421,10.521 135.607 C 10.350 135.675,10.307 135.982,10.425 136.291 C 10.544 136.600,10.463 136.852,10.245 136.852 C 10.027 136.852,9.948 137.232,10.069 137.696 C 10.208 138.227,10.138 138.445,9.881 138.286 C 9.656 138.147,9.495 138.252,9.522 138.518 C 9.600 139.274,8.554 143.108,8.270 143.109 C 8.130 143.110,7.975 143.680,7.926 144.377 C 7.877 145.074,7.656 145.705,7.435 145.778 C 7.214 145.852,7.112 146.040,7.209 146.197 C 7.501 146.669,6.222 151.711,5.810 151.711 C 5.600 151.711,5.522 151.863,5.637 152.049 C 5.933 152.528,4.991 156.794,4.588 156.794 C 4.405 156.794,4.353 156.952,4.472 157.145 C 4.747 157.590,3.461 164.375,3.070 164.541 C 2.911 164.609,2.878 164.917,2.996 165.226 C 3.115 165.534,3.079 166.095,2.916 166.471 C 2.754 166.848,2.657 167.535,2.702 167.998 C 2.747 168.461,2.613 168.945,2.406 169.074 C 2.198 169.202,2.120 169.656,2.231 170.083 C 2.343 170.509,2.309 171.169,2.156 171.548 C 2.003 171.928,1.794 173.558,1.691 175.171 C 1.589 176.784,1.386 178.147,1.241 178.201 C 1.096 178.255,1.038 179.178,1.113 180.254 C 1.188 181.329,1.100 182.209,0.918 182.209 C 0.735 182.209,0.615 183.351,0.651 184.748 C 0.686 186.145,0.598 187.360,0.455 187.448 C 0.134 187.647,0.147 211.995,0.469 212.522 C 0.597 212.732,0.676 214.003,0.644 215.347 C 0.612 216.691,0.732 217.791,0.909 217.791 C 1.086 217.791,1.196 218.627,1.153 219.648 C 1.110 220.670,1.181 221.769,1.310 222.092 C 1.440 222.414,1.621 223.822,1.714 225.220 C 1.807 226.618,2.007 228.072,2.158 228.452 C 2.310 228.831,2.343 229.491,2.231 229.917 C 2.120 230.344,2.198 230.798,2.406 230.926 C 2.613 231.055,2.747 231.539,2.702 232.002 C 2.657 232.465,2.754 233.152,2.916 233.529 C 3.079 233.905,3.115 234.466,2.996 234.774 C 2.878 235.083,2.911 235.391,3.070 235.459 C 3.461 235.625,4.747 242.410,4.472 242.855 C 4.353 243.048,4.405 243.206,4.588 243.206 C 4.991 243.206,5.933 247.472,5.637 247.951 C 5.522 248.137,5.600 248.289,5.810 248.289 C 6.222 248.289,7.501 253.331,7.209 253.803 C 7.112 253.960,7.214 254.148,7.435 254.222 C 7.656 254.295,7.877 254.926,7.926 255.623 C 7.975 256.320,8.130 256.890,8.270 256.891 C 8.554 256.892,9.600 260.726,9.522 261.482 C 9.495 261.748,9.656 261.853,9.881 261.714 C 10.138 261.555,10.208 261.773,10.069 262.304 C 9.948 262.768,10.027 263.148,10.245 263.148 C 10.463 263.148,10.544 263.400,10.425 263.709 C 10.307 264.018,10.350 264.325,10.521 264.393 C 10.990 264.579,12.556 269.017,12.299 269.433 C 12.176 269.632,12.223 269.795,12.403 269.795 C 12.867 269.795,13.711 272.173,13.417 272.649 C 13.279 272.873,13.369 272.923,13.625 272.765 C 14.043 272.506,14.110 272.663,14.233 274.194 C 14.254 274.462,14.379 274.770,14.509 274.878 C 15.004 275.284,16.407 278.888,16.201 279.221 C 16.082 279.413,16.150 279.570,16.352 279.570 C 16.707 279.570,17.453 281.107,17.680 282.307 C 17.741 282.630,17.901 282.981,18.036 283.089 C 18.577 283.519,24.577 295.919,24.353 296.143 C 24.220 296.275,24.307 296.383,24.545 296.383 C 25.057 296.383,27.625 301.064,27.436 301.650 C 27.364 301.872,27.438 301.920,27.599 301.759 C 27.910 301.449,29.809 304.442,29.833 305.279 C 29.841 305.547,29.969 305.767,30.117 305.767 C 30.504 305.767,33.366 310.155,33.366 310.747 C 33.366 311.019,33.496 311.241,33.655 311.241 C 34.071 311.241,36.885 315.240,36.885 315.830 C 36.885 316.102,37.010 316.325,37.163 316.325 C 37.572 316.325,42.993 323.629,42.791 323.908 C 42.697 324.038,42.736 324.058,42.878 323.952 C 43.218 323.698,44.410 325.400,44.246 325.904 C 44.176 326.119,44.242 326.172,44.392 326.022 C 44.734 325.680,48.337 330.053,48.159 330.593 C 48.087 330.810,48.148 330.868,48.294 330.722 C 48.600 330.416,51.075 333.120,50.929 333.600 C 50.875 333.776,50.968 333.876,51.135 333.822 C 51.500 333.705,56.534 339.002,56.424 339.388 C 56.326 339.734,60.283 343.654,60.802 343.723 C 61.372 343.800,66.293 348.507,66.178 348.865 C 66.124 349.032,66.224 349.125,66.400 349.071 C 66.880 348.925,69.584 351.400,69.278 351.706 C 69.132 351.852,69.190 351.913,69.407 351.841 C 69.947 351.663,74.320 355.266,73.978 355.608 C 73.828 355.758,73.881 355.824,74.096 355.754 C 74.693 355.560,76.281 356.815,75.951 357.220 C 75.791 357.416,75.810 357.454,75.994 357.306 C 76.333 357.034,83.675 362.321,83.675 362.837 C 83.675 362.990,83.898 363.115,84.170 363.115 C 84.760 363.115,88.759 365.929,88.759 366.345 C 88.759 366.504,88.981 366.634,89.253 366.634 C 89.845 366.634,94.233 369.496,94.233 369.883 C 94.233 370.031,94.453 370.159,94.721 370.167 C 95.558 370.191,98.551 372.090,98.241 372.401 C 98.080 372.562,98.128 372.636,98.350 372.564 C 98.936 372.375,103.617 374.943,103.617 375.455 C 103.617 375.693,103.725 375.780,103.857 375.647 C 104.081 375.423,116.481 381.423,116.911 381.964 C 117.019 382.099,117.370 382.259,117.693 382.320 C 118.893 382.547,120.430 383.293,120.430 383.648 C 120.430 383.850,120.587 383.918,120.779 383.799 C 121.112 383.593,124.716 384.996,125.122 385.491 C 125.230 385.621,125.538 385.746,125.806 385.767 C 127.337 385.890,127.494 385.957,127.235 386.375 C 127.077 386.631,127.127 386.721,127.351 386.583 C 127.827 386.289,130.205 387.133,130.205 387.597 C 130.205 387.777,130.368 387.824,130.567 387.701 C 130.983 387.444,135.421 389.010,135.607 389.479 C 135.675 389.650,135.982 389.693,136.291 389.575 C 136.600 389.456,136.852 389.537,136.852 389.755 C 136.852 389.973,137.232 390.052,137.696 389.931 C 138.227 389.792,138.445 389.862,138.286 390.119 C 138.147 390.344,138.252 390.505,138.518 390.478 C 139.274 390.400,143.108 391.446,143.109 391.730 C 143.110 391.870,143.680 392.025,144.377 392.074 C 145.074 392.123,145.705 392.344,145.778 392.565 C 145.852 392.786,146.040 392.888,146.197 392.791 C 146.669 392.499,151.711 393.778,151.711 394.190 C 151.711 394.400,151.863 394.478,152.049 394.363 C 152.528 394.067,156.794 395.009,156.794 395.412 C 156.794 395.595,156.952 395.647,157.145 395.528 C 157.590 395.253,164.375 396.539,164.541 396.930 C 164.609 397.089,164.917 397.122,165.226 397.004 C 165.534 396.885,166.095 396.921,166.471 397.084 C 166.848 397.246,167.535 397.343,167.998 397.298 C 168.461 397.253,168.945 397.387,169.074 397.594 C 169.202 397.802,169.656 397.880,170.083 397.769 C 170.509 397.657,171.169 397.690,171.548 397.842 C 171.928 397.993,173.382 398.193,174.780 398.286 C 176.178 398.379,177.586 398.560,177.908 398.690 C 178.231 398.819,179.330 398.890,180.352 398.847 C 181.373 398.804,182.209 398.914,182.209 399.091 C 182.209 399.268,183.309 399.388,184.653 399.356 C 185.997 399.324,187.264 399.400,187.469 399.525 C 187.990 399.844,212.355 399.863,212.552 399.545 C 212.640 399.402,213.855 399.314,215.252 399.349 C 216.649 399.385,217.791 399.265,217.791 399.082 C 217.791 398.900,218.671 398.812,219.746 398.887 C 220.822 398.962,221.745 398.904,221.799 398.759 C 221.853 398.614,223.216 398.411,224.829 398.309 C 226.442 398.206,228.072 397.997,228.452 397.844 C 228.831 397.691,229.491 397.657,229.917 397.769 C 230.344 397.880,230.798 397.802,230.926 397.594 C 231.055 397.387,231.539 397.253,232.002 397.298 C 232.465 397.343,233.152 397.246,233.529 397.084 C 233.905 396.921,234.466 396.885,234.774 397.004 C 235.083 397.122,235.391 397.089,235.459 396.930 C 235.625 396.539,242.410 395.253,242.855 395.528 C 243.048 395.647,243.206 395.595,243.206 395.412 C 243.206 395.009,247.472 394.067,247.951 394.363 C 248.137 394.478,248.289 394.400,248.289 394.190 C 248.289 393.778,253.331 392.499,253.803 392.791 C 253.960 392.888,254.148 392.786,254.222 392.565 C 254.295 392.344,254.926 392.123,255.623 392.074 C 256.320 392.025,256.890 391.870,256.891 391.730 C 256.892 391.446,260.726 390.400,261.482 390.478 C 261.748 390.505,261.853 390.344,261.714 390.119 C 261.555 389.862,261.773 389.792,262.304 389.931 C 262.768 390.052,263.148 389.973,263.148 389.755 C 263.148 389.537,263.400 389.456,263.709 389.575 C 264.018 389.693,264.325 389.650,264.393 389.479 C 264.579 389.010,269.017 387.444,269.433 387.701 C 269.632 387.824,269.795 387.777,269.795 387.597 C 269.795 387.133,272.173 386.289,272.649 386.583 C 272.873 386.721,272.923 386.631,272.765 386.375 C 272.506 385.957,272.663 385.890,274.194 385.767 C 274.462 385.746,274.774 385.607,274.886 385.460 C 275.268 384.955,278.858 383.575,279.214 383.795 C 279.410 383.916,279.570 383.850,279.570 383.648 C 279.570 383.293,281.107 382.547,282.307 382.320 C 282.630 382.259,282.981 382.099,283.089 381.964 C 283.519 381.423,295.919 375.423,296.143 375.647 C 296.275 375.780,296.383 375.693,296.383 375.455 C 296.383 374.995,301.034 372.366,301.553 372.532 C 301.720 372.586,301.857 372.471,301.857 372.277 C 301.857 371.857,304.579 370.175,305.279 370.162 C 305.547 370.157,305.767 370.031,305.767 369.883 C 305.767 369.496,310.155 366.634,310.747 366.634 C 311.019 366.634,311.241 366.504,311.241 366.345 C 311.241 365.929,315.240 363.115,315.830 363.115 C 316.102 363.115,316.325 362.990,316.325 362.837 C 316.325 362.428,323.629 357.007,323.908 357.209 C 324.038 357.303,324.058 357.264,323.952 357.122 C 323.698 356.782,325.400 355.590,325.904 355.754 C 326.119 355.824,326.172 355.758,326.022 355.608 C 325.680 355.266,330.053 351.663,330.593 351.841 C 330.810 351.913,330.868 351.852,330.722 351.706 C 330.416 351.400,333.120 348.925,333.600 349.071 C 333.776 349.125,333.876 349.032,333.822 348.865 C 333.706 348.505,339.040 343.410,339.234 343.695 C 339.413 343.958,343.674 339.731,343.576 339.388 C 343.466 339.002,348.500 333.705,348.865 333.822 C 349.032 333.876,349.125 333.776,349.071 333.600 C 348.925 333.120,351.400 330.416,351.706 330.722 C 351.852 330.868,351.913 330.810,351.841 330.593 C 351.663 330.053,355.266 325.680,355.608 326.022 C 355.758 326.172,355.824 326.119,355.754 325.904 C 355.590 325.400,356.782 323.698,357.122 323.952 C 357.264 324.058,357.303 324.038,357.209 323.908 C 357.007 323.629,362.428 316.325,362.837 316.325 C 362.990 316.325,363.115 316.102,363.115 315.830 C 363.115 315.240,365.929 311.241,366.345 311.241 C 366.504 311.241,366.634 311.019,366.634 310.747 C 366.634 310.155,369.496 305.767,369.883 305.767 C 370.031 305.767,370.157 305.547,370.162 305.279 C 370.175 304.579,371.857 301.857,372.277 301.857 C 372.471 301.857,372.586 301.720,372.532 301.553 C 372.366 301.034,374.995 296.383,375.455 296.383 C 375.693 296.383,375.780 296.275,375.647 296.143 C 375.423 295.919,381.423 283.519,381.964 283.089 C 382.099 282.981,382.259 282.630,382.320 282.307 C 382.547 281.107,383.293 279.570,383.648 279.570 C 383.850 279.570,383.918 279.413,383.799 279.221 C 383.593 278.888,384.996 275.284,385.491 274.878 C 385.621 274.770,385.746 274.462,385.767 274.194 C 385.890 272.663,385.957 272.506,386.375 272.765 C 386.631 272.923,386.721 272.873,386.583 272.649 C 386.289 272.173,387.133 269.795,387.597 269.795 C 387.777 269.795,387.824 269.632,387.701 269.433 C 387.444 269.017,389.010 264.579,389.479 264.393 C 389.650 264.325,389.693 264.018,389.575 263.709 C 389.456 263.400,389.537 263.148,389.755 263.148 C 389.973 263.148,390.052 262.768,389.931 262.304 C 389.792 261.773,389.862 261.555,390.119 261.714 C 390.344 261.853,390.505 261.748,390.478 261.482 C 390.400 260.726,391.446 256.892,391.730 256.891 C 391.870 256.890,392.025 256.320,392.074 255.623 C 392.123 254.926,392.344 254.295,392.565 254.222 C 392.786 254.148,392.888 253.960,392.791 253.803 C 392.499 253.331,393.778 248.289,394.190 248.289 C 394.400 248.289,394.478 248.137,394.363 247.951 C 394.067 247.472,395.009 243.206,395.412 243.206 C 395.595 243.206,395.647 243.048,395.528 242.855 C 395.253 242.410,396.539 235.625,396.930 235.459 C 397.089 235.391,397.122 235.083,397.004 234.774 C 396.885 234.466,396.921 233.905,397.084 233.529 C 397.246 233.152,397.343 232.465,397.298 232.002 C 397.253 231.539,397.387 231.055,397.594 230.926 C 397.802 230.798,397.880 230.344,397.769 229.917 C 397.657 229.491,397.690 228.831,397.842 228.452 C 397.993 228.072,398.193 226.618,398.286 225.220 C 398.379 223.822,398.560 222.414,398.690 222.092 C 398.819 221.769,398.890 220.670,398.847 219.648 C 398.804 218.627,398.914 217.791,399.091 217.791 C 399.268 217.791,399.388 216.691,399.356 215.347 C 399.324 214.003,399.403 212.732,399.531 212.522 C 399.853 211.995,399.866 187.647,399.545 187.448 C 399.402 187.360,399.314 186.145,399.349 184.748 C 399.385 183.351,399.265 182.209,399.082 182.209 C 398.900 182.209,398.812 181.329,398.887 180.254 C 398.962 179.178,398.904 178.255,398.759 178.201 C 398.614 178.147,398.411 176.784,398.309 175.171 C 398.206 173.558,397.997 171.928,397.844 171.548 C 397.691 171.169,397.657 170.509,397.769 170.083 C 397.880 169.656,397.802 169.202,397.594 169.074 C 397.387 168.945,397.253 168.461,397.298 167.998 C 397.343 167.535,397.246 166.848,397.084 166.471 C 396.921 166.095,396.885 165.534,397.004 165.226 C 397.122 164.917,397.089 164.609,396.930 164.541 C 396.539 164.375,395.253 157.590,395.528 157.145 C 395.647 156.952,395.595 156.794,395.412 156.794 C 395.009 156.794,394.067 152.528,394.363 152.049 C 394.478 151.863,394.400 151.711,394.190 151.711 C 393.778 151.711,392.499 146.669,392.791 146.197 C 392.888 146.040,392.786 145.852,392.565 145.778 C 392.344 145.705,392.123 145.074,392.074 144.377 C 392.025 143.680,391.870 143.110,391.730 143.109 C 391.446 143.108,390.400 139.274,390.478 138.518 C 390.505 138.252,390.344 138.147,390.119 138.286 C 389.862 138.445,389.792 138.227,389.931 137.696 C 390.052 137.232,389.973 136.852,389.755 136.852 C 389.537 136.852,389.456 136.600,389.575 136.291 C 389.693 135.982,389.650 135.675,389.479 135.607 C 389.010 135.421,387.444 130.983,387.701 130.567 C 387.824 130.368,387.777 130.205,387.597 130.205 C 387.133 130.205,386.289 127.827,386.583 127.351 C 386.721 127.127,386.631 127.077,386.375 127.235 C 385.957 127.494,385.890 127.337,385.767 125.806 C 385.746 125.538,385.607 125.226,385.460 125.114 C 384.955 124.732,383.575 121.142,383.795 120.786 C 383.916 120.590,383.850 120.430,383.648 120.430 C 383.293 120.430,382.547 118.893,382.320 117.693 C 382.259 117.370,382.099 117.019,381.964 116.911 C 381.423 116.481,375.423 104.081,375.647 103.857 C 375.780 103.725,375.693 103.617,375.455 103.617 C 374.995 103.617,372.366 98.966,372.532 98.447 C 372.586 98.280,372.471 98.143,372.277 98.143 C 371.857 98.143,370.175 95.421,370.162 94.721 C 370.157 94.453,370.031 94.233,369.883 94.233 C 369.496 94.233,366.634 89.845,366.634 89.253 C 366.634 88.981,366.504 88.759,366.345 88.759 C 365.929 88.759,363.115 84.760,363.115 84.170 C 363.115 83.898,362.990 83.675,362.837 83.675 C 362.537 83.675,356.988 76.421,357.111 76.190 C 357.151 76.113,357.113 76.094,357.024 76.146 C 356.743 76.313,355.622 74.503,355.754 74.096 C 355.824 73.881,355.758 73.828,355.608 73.978 C 355.266 74.320,351.663 69.947,351.841 69.407 C 351.913 69.190,351.852 69.132,351.706 69.278 C 351.400 69.584,348.925 66.880,349.071 66.400 C 349.125 66.224,349.032 66.124,348.865 66.178 C 348.500 66.295,343.466 60.998,343.576 60.612 C 343.674 60.269,339.413 56.042,339.234 56.305 C 339.040 56.590,333.706 51.495,333.822 51.135 C 333.876 50.968,333.776 50.875,333.600 50.929 C 333.120 51.075,330.416 48.600,330.722 48.294 C 330.868 48.148,330.810 48.087,330.593 48.159 C 330.053 48.337,325.680 44.734,326.022 44.392 C 326.172 44.242,326.119 44.176,325.904 44.246 C 325.400 44.410,323.698 43.218,323.952 42.878 C 324.058 42.736,324.038 42.697,323.908 42.791 C 323.629 42.993,316.325 37.572,316.325 37.163 C 316.325 37.010,316.102 36.885,315.830 36.885 C 315.240 36.885,311.241 34.071,311.241 33.655 C 311.241 33.496,311.019 33.366,310.747 33.366 C 310.155 33.366,305.767 30.504,305.767 30.117 C 305.767 29.969,305.547 29.843,305.279 29.838 C 304.579 29.825,301.857 28.143,301.857 27.723 C 301.857 27.529,301.720 27.414,301.553 27.468 C 301.034 27.634,296.383 25.005,296.383 24.545 C 296.383 24.307,296.275 24.220,296.143 24.353 C 295.919 24.577,283.519 18.577,283.089 18.036 C 282.981 17.901,282.630 17.741,282.307 17.680 C 281.107 17.453,279.570 16.707,279.570 16.352 C 279.570 16.150,279.413 16.082,279.221 16.201 C 278.888 16.407,275.284 15.004,274.878 14.509 C 274.770 14.379,274.462 14.254,274.194 14.233 C 272.663 14.110,272.506 14.043,272.765 13.625 C 272.923 13.369,272.873 13.279,272.649 13.417 C 272.173 13.711,269.795 12.867,269.795 12.403 C 269.795 12.223,269.632 12.176,269.433 12.299 C 269.017 12.556,264.579 10.990,264.393 10.521 C 264.325 10.350,264.018 10.307,263.709 10.425 C 263.400 10.544,263.148 10.463,263.148 10.245 C 263.148 10.027,262.768 9.948,262.304 10.069 C 261.773 10.208,261.555 10.138,261.714 9.881 C 261.853 9.656,261.748 9.495,261.482 9.522 C 260.726 9.600,256.892 8.554,256.891 8.270 C 256.890 8.130,256.320 7.975,255.623 7.926 C 254.926 7.877,254.295 7.656,254.222 7.435 C 254.148 7.214,253.960 7.112,253.803 7.209 C 253.331 7.501,248.289 6.222,248.289 5.810 C 248.289 5.600,248.137 5.522,247.951 5.637 C 247.472 5.933,243.206 4.991,243.206 4.588 C 243.206 4.405,243.048 4.353,242.855 4.472 C 242.410 4.747,235.625 3.461,235.459 3.070 C 235.391 2.911,235.083 2.878,234.774 2.996 C 234.466 3.115,233.905 3.079,233.529 2.916 C 233.152 2.754,232.465 2.657,232.002 2.702 C 231.539 2.747,231.055 2.613,230.926 2.406 C 230.798 2.198,230.344 2.120,229.917 2.231 C 229.491 2.343,228.831 2.310,228.452 2.158 C 228.072 2.007,226.618 1.807,225.220 1.714 C 223.822 1.621,222.414 1.440,222.092 1.310 C 221.769 1.181,220.670 1.110,219.648 1.153 C 218.627 1.196,217.791 1.086,217.791 0.909 C 217.791 0.732,216.691 0.612,215.347 0.644 C 214.003 0.676,212.732 0.597,212.522 0.469 C 211.995 0.147,187.647 0.134,187.448 0.455 M60.606 56.808 C 60.606 56.870,59.682 57.794,58.553 58.861 L 56.500 60.802 58.441 58.749 C 60.244 56.841,60.606 56.517,60.606 56.808 M341.544 58.651 C 342.604 59.726,343.382 60.606,343.275 60.606 C 343.167 60.606,342.213 59.726,341.153 58.651 C 340.094 57.576,339.316 56.696,339.423 56.696 C 339.531 56.696,340.485 57.576,341.544 58.651 M244.044 65.506 C 252.185 71.228,248.057 82.111,237.745 82.111 L 234.161 82.111 234.295 106.843 C 234.398 125.920,234.544 131.842,234.933 132.747 C 235.503 134.072,248.081 158.630,250.955 164.027 C 254.656 170.980,262.705 186.033,265.694 191.593 C 267.370 194.712,269.355 198.407,270.106 199.804 C 280.241 218.677,288.548 236.388,289.915 242.033 C 299.701 282.474,272.402 319.799,229.861 324.142 C 222.825 324.860,169.741 324.448,165.591 323.643 C 134.575 317.625,112.735 296.388,107.756 267.405 C 104.818 250.297,109.394 236.865,132.853 193.744 C 133.789 192.023,135.515 188.615,136.688 186.170 C 137.862 183.724,140.201 179.237,141.886 176.199 C 144.538 171.416,148.028 164.749,155.624 149.951 C 156.618 148.016,159.224 142.966,161.416 138.729 L 165.402 131.026 165.301 106.471 L 165.200 81.916 162.202 82.054 C 151.934 82.529,147.117 69.812,155.909 65.443 C 157.232 64.785,209.676 64.067,239.362 64.300 C 242.048 64.321,242.537 64.447,244.044 65.506 M180.824 85.879 C 180.662 88.216,180.627 96.373,180.745 104.008 C 180.863 111.642,180.832 121.320,180.677 125.513 L 180.395 133.138 178.700 137.439 C 177.767 139.804,176.877 141.916,176.721 142.131 C 175.879 143.293,166.997 159.838,163.812 166.178 L 161.553 170.674 163.377 170.773 C 170.152 171.140,176.566 172.527,183.578 175.142 C 197.716 180.413,201.875 180.352,217.986 174.640 C 222.219 173.139,232.831 170.870,235.618 170.870 C 238.190 170.870,238.712 172.120,227.856 152.297 C 218.141 134.557,218.573 136.688,218.573 106.487 L 218.573 82.111 201.271 82.107 C 191.755 82.105,183.327 81.997,182.543 81.867 L 181.117 81.631 180.824 85.879 M235.582 183.248 C 235.152 183.339,233.392 183.680,231.672 184.006 C 229.951 184.331,225.904 185.451,222.678 186.495 C 206.053 191.875,194.908 191.872,177.441 186.483 C 166.583 183.133,157.132 182.884,153.876 185.862 C 151.928 187.644,127.117 236.613,125.202 242.457 C 116.723 268.326,131.422 298.801,155.816 305.931 C 168.309 309.583,166.634 309.448,199.609 309.448 C 234.327 309.448,236.008 309.275,247.363 304.548 C 265.308 297.077,278.385 275.715,276.826 256.416 C 276.046 246.758,275.069 243.565,269.374 232.063 C 260.917 214.980,244.762 183.664,244.214 183.290 C 243.775 182.991,236.948 182.958,235.582 183.248 M168.990 202.610 C 175.949 204.695,176.554 213.784,169.947 216.982 C 164.432 219.652,158.358 215.872,158.358 209.771 C 158.358 204.375,163.445 200.949,168.990 202.610 M159.655 226.779 C 161.728 228.094,163.832 231.076,163.832 232.700 C 163.832 239.898,151.817 242.841,148.624 236.425 C 144.965 229.070,152.659 222.342,159.655 226.779 M58.847 341.349 C 59.906 342.424,60.684 343.304,60.577 343.304 C 60.469 343.304,59.515 342.424,58.456 341.349 C 57.396 340.274,56.618 339.394,56.725 339.394 C 56.833 339.394,57.787 340.274,58.847 341.349 M343.304 339.506 C 343.304 339.568,342.380 340.492,341.251 341.559 L 339.198 343.500 341.139 341.447 C 342.942 339.539,343.304 339.215,343.304 339.506 " stroke="none" fill="#1cc4ec" fill-rule="evenodd"></path><path id="path1" d="M197.263 64.512 C 157.424 64.711,157.379 64.713,155.816 65.550 C 147.173 70.181,152.206 82.807,162.338 81.910 L 165.396 81.639 165.396 106.265 C 165.396 127.964,165.321 131.072,164.769 132.406 C 164.425 133.239,162.513 136.999,160.521 140.762 C 158.529 144.526,153.947 153.324,150.339 160.313 C 146.731 167.302,143.035 174.340,142.125 175.953 C 141.216 177.566,138.483 182.757,136.052 187.488 C 133.621 192.219,129.985 199.257,127.972 203.128 C 109.537 238.579,106.755 246.217,107.249 260.020 C 108.454 293.669,135.876 321.046,171.457 324.122 C 177.218 324.620,223.499 324.647,228.935 324.156 C 272.330 320.232,300.009 282.284,289.550 241.053 C 288.038 235.092,279.413 217.369,264.434 189.443 C 253.873 169.753,240.786 144.841,237.216 137.634 L 234.409 131.965 234.297 106.940 L 234.186 81.916 237.447 82.051 C 242.274 82.250,244.839 80.880,247.136 76.876 C 250.370 71.238,245.723 63.919,239.101 64.222 C 238.025 64.271,219.198 64.402,197.263 64.512 M218.584 107.331 L 218.790 132.747 220.011 136.147 C 221.297 139.730,225.777 148.553,231.545 158.860 C 234.925 164.899,237.732 170.256,237.732 170.665 C 237.732 170.778,236.936 170.870,235.962 170.870 C 232.798 170.870,222.198 173.196,217.072 175.016 C 201.301 180.614,198.510 180.541,180.254 174.049 C 175.577 172.386,169.367 171.202,164.962 171.132 L 161.204 171.073 163.491 166.500 C 164.749 163.985,167.391 158.968,169.362 155.352 C 171.333 151.737,173.859 147.099,174.975 145.047 C 176.091 142.995,177.779 139.387,178.727 137.031 L 180.450 132.747 180.662 107.331 C 180.779 93.353,180.911 81.916,180.956 81.916 C 181.000 81.916,189.439 81.916,199.707 81.916 L 218.377 81.916 218.584 107.331 M246.941 187.977 C 258.346 209.595,273.404 239.610,274.463 242.836 C 277.000 250.565,277.792 260.432,276.417 267.181 C 271.862 289.532,254.860 305.671,232.388 308.974 C 226.624 309.822,170.975 309.671,166.569 308.796 C 149.824 305.472,141.859 300.750,132.189 288.414 C 123.182 276.924,120.202 257.070,125.230 242.048 C 126.235 239.047,143.791 203.203,145.059 201.564 C 145.226 201.349,146.287 199.326,147.418 197.067 C 148.549 194.809,150.426 191.263,151.590 189.187 L 153.706 185.412 156.743 184.593 C 162.659 182.996,168.092 183.488,177.890 186.505 C 194.928 191.751,205.899 191.796,221.734 186.685 C 230.381 183.894,234.558 183.053,239.946 183.019 L 244.311 182.991 246.941 187.977 M163.769 202.591 C 155.254 204.987,157.450 217.791,166.376 217.791 C 173.172 217.791,177.177 209.010,172.373 204.640 C 170.162 202.628,166.628 201.787,163.769 202.591 M151.515 226.163 C 147.963 227.742,146.770 232.178,148.752 236.436 C 151.214 241.723,160.579 240.867,163.120 235.124 C 165.594 229.531,157.683 223.422,151.515 226.163 " stroke="none" fill="#050a0e" fill-rule="evenodd"></path><path id="path2" d="M189.736 0.287 C 190.758 0.368,192.429 0.368,193.451 0.287 C 194.472 0.207,193.636 0.141,191.593 0.141 C 189.550 0.141,188.715 0.207,189.736 0.287 M206.549 0.287 C 207.571 0.368,209.242 0.368,210.264 0.287 C 211.285 0.207,210.450 0.141,208.407 0.141 C 206.364 0.141,205.528 0.207,206.549 0.287 M183.480 0.671 C 184.071 0.761,185.039 0.761,185.630 0.671 C 186.222 0.581,185.738 0.508,184.555 0.508 C 183.372 0.508,182.889 0.581,183.480 0.671 M214.370 0.671 C 214.961 0.761,215.929 0.761,216.520 0.671 C 217.111 0.581,216.628 0.508,215.445 0.508 C 214.262 0.508,213.778 0.581,214.370 0.671 M179.374 1.058 C 179.858 1.151,180.650 1.151,181.134 1.058 C 181.618 0.965,181.222 0.889,180.254 0.889 C 179.286 0.889,178.891 0.965,179.374 1.058 M218.866 1.058 C 219.350 1.151,220.142 1.151,220.626 1.058 C 221.109 0.965,220.714 0.889,219.746 0.889 C 218.778 0.889,218.382 0.965,218.866 1.058 M175.860 1.450 C 176.346 1.543,177.050 1.540,177.424 1.442 C 177.798 1.344,177.400 1.267,176.540 1.272 C 175.679 1.276,175.374 1.356,175.860 1.450 M222.781 1.450 C 223.267 1.543,223.971 1.540,224.345 1.442 C 224.719 1.344,224.321 1.267,223.460 1.272 C 222.600 1.276,222.294 1.356,222.781 1.450 M141.349 8.602 C 140.856 8.814,140.784 8.938,141.153 8.938 C 141.476 8.938,142.092 8.787,142.522 8.602 C 143.015 8.390,143.087 8.266,142.717 8.266 C 142.395 8.266,141.779 8.417,141.349 8.602 M257.478 8.602 C 257.908 8.787,258.524 8.938,258.847 8.938 C 259.216 8.938,259.144 8.814,258.651 8.602 C 258.221 8.417,257.605 8.266,257.283 8.266 C 256.913 8.266,256.985 8.390,257.478 8.602 M131.574 11.939 C 130.596 12.410,130.564 12.465,131.378 12.266 C 132.486 11.995,133.732 11.360,133.138 11.369 C 132.923 11.372,132.219 11.629,131.574 11.939 M267.058 11.664 C 267.380 11.864,268.084 12.144,268.622 12.288 C 269.301 12.470,269.420 12.439,269.013 12.187 C 268.690 11.988,267.986 11.707,267.449 11.563 C 266.769 11.382,266.650 11.412,267.058 11.664 M121.603 15.836 C 121.065 16.143,120.802 16.395,121.017 16.395 C 121.232 16.395,121.848 16.143,122.385 15.836 C 122.923 15.528,123.187 15.277,122.972 15.277 C 122.757 15.277,122.141 15.528,121.603 15.836 M277.615 15.836 C 278.152 16.143,278.768 16.395,278.983 16.395 C 279.198 16.395,278.935 16.143,278.397 15.836 C 277.859 15.528,277.243 15.277,277.028 15.277 C 276.813 15.277,277.077 15.528,277.615 15.836 M118.866 17.009 C 118.328 17.316,118.065 17.568,118.280 17.568 C 118.495 17.568,119.110 17.316,119.648 17.009 C 120.186 16.701,120.450 16.450,120.235 16.450 C 120.020 16.450,119.404 16.701,118.866 17.009 M280.352 17.009 C 280.890 17.316,281.505 17.568,281.720 17.568 C 281.935 17.568,281.672 17.316,281.134 17.009 C 280.596 16.701,279.980 16.450,279.765 16.450 C 279.550 16.450,279.814 16.701,280.352 17.009 M110.166 21.137 C 106.779 22.848,104.008 24.335,104.008 24.443 C 104.008 24.617,116.481 18.507,116.878 18.138 C 117.519 17.542,115.487 18.450,110.166 21.137 M283.122 18.138 C 283.519 18.507,295.992 24.617,295.992 24.443 C 295.992 24.227,283.650 17.986,283.224 17.986 C 283.078 17.986,283.032 18.054,283.122 18.138 M101.955 25.442 C 101.149 25.868,100.489 26.303,100.489 26.410 C 100.489 26.517,101.193 26.245,102.053 25.806 C 102.913 25.368,103.617 24.924,103.617 24.821 C 103.617 24.565,103.614 24.566,101.955 25.442 M296.383 24.813 C 296.383 24.921,297.087 25.368,297.947 25.806 C 298.807 26.245,299.511 26.516,299.511 26.409 C 299.511 26.301,298.807 25.854,297.947 25.415 C 297.087 24.977,296.383 24.706,296.383 24.813 M96.285 28.765 C 95.371 29.313,94.624 29.853,94.624 29.966 C 94.624 30.177,97.262 28.679,97.928 28.090 C 98.600 27.496,97.974 27.753,96.285 28.765 M302.053 28.045 C 302.268 28.250,303.148 28.814,304.008 29.297 C 304.868 29.780,305.220 29.882,304.790 29.525 C 303.916 28.799,301.439 27.460,302.053 28.045 M91.881 31.528 C 89.553 33.071,88.220 34.223,90.127 33.046 C 93.329 31.069,94.638 30.108,94.130 30.108 C 94.073 30.108,93.061 30.747,91.881 31.528 M305.767 30.206 C 305.767 30.377,306.554 30.929,309.775 33.019 C 310.367 33.403,310.850 33.632,310.850 33.528 C 310.850 33.357,310.064 32.805,306.843 30.715 C 306.251 30.332,305.767 30.102,305.767 30.206 M86.653 34.991 C 85.603 35.718,84.547 36.525,84.307 36.784 C 84.067 37.043,84.971 36.521,86.315 35.622 C 87.659 34.724,88.759 33.907,88.759 33.808 C 88.759 33.539,88.722 33.560,86.653 34.991 M311.241 33.793 C 311.241 33.900,312.297 34.705,313.587 35.582 C 314.878 36.458,315.934 37.087,315.934 36.979 C 315.934 36.872,314.878 36.067,313.587 35.191 C 312.297 34.314,311.241 33.685,311.241 33.793 M79.475 40.208 C 65.778 50.651,52.274 63.930,42.395 76.671 C 38.088 82.226,37.021 83.675,37.238 83.675 C 37.340 83.675,38.929 81.696,40.768 79.277 C 51.192 65.566,64.295 52.318,77.445 42.194 C 83.194 37.768,83.929 37.174,83.675 37.163 C 83.568 37.159,81.678 38.529,79.475 40.208 M316.952 37.796 C 317.405 38.191,319.926 40.170,322.555 42.194 C 335.705 52.318,348.808 65.566,359.232 79.277 C 361.071 81.696,362.660 83.675,362.762 83.675 C 362.979 83.675,361.912 82.226,357.605 76.671 C 348.265 64.626,335.192 51.607,322.581 41.793 C 318.872 38.906,315.394 36.437,316.952 37.796 M35.191 86.413 C 34.314 87.703,33.685 88.759,33.793 88.759 C 33.900 88.759,34.705 87.703,35.582 86.413 C 36.458 85.122,37.087 84.066,36.979 84.066 C 36.872 84.066,36.067 85.122,35.191 86.413 M364.418 86.413 C 365.295 87.703,366.100 88.759,366.207 88.759 C 366.315 88.759,365.686 87.703,364.809 86.413 C 363.933 85.122,363.128 84.066,363.021 84.066 C 362.913 84.066,363.542 85.122,364.418 86.413 M32.376 90.616 C 30.283 93.802,30.024 94.233,30.206 94.233 C 30.377 94.233,30.929 93.446,33.019 90.225 C 33.403 89.633,33.632 89.150,33.528 89.150 C 33.424 89.150,32.906 89.809,32.376 90.616 M366.981 90.225 C 369.071 93.446,369.623 94.233,369.794 94.233 C 369.898 94.233,369.668 93.749,369.285 93.157 C 367.195 89.936,366.643 89.150,366.472 89.150 C 366.368 89.150,366.597 89.633,366.981 90.225 M29.236 95.503 C 28.380 96.822,27.613 98.393,28.042 97.947 C 28.590 97.377,30.203 94.624,29.989 94.624 C 29.889 94.624,29.550 95.020,29.236 95.503 M370.703 95.992 C 371.186 96.852,371.750 97.732,371.955 97.947 C 372.540 98.561,371.201 96.084,370.475 95.210 C 370.118 94.780,370.220 95.132,370.703 95.992 M25.415 102.053 C 24.977 102.913,24.706 103.617,24.813 103.617 C 24.921 103.617,25.368 102.913,25.806 102.053 C 26.245 101.193,26.516 100.489,26.409 100.489 C 26.301 100.489,25.854 101.193,25.415 102.053 M374.194 102.053 C 374.632 102.913,375.079 103.617,375.187 103.617 C 375.294 103.617,375.023 102.913,374.585 102.053 C 374.146 101.193,373.699 100.489,373.591 100.489 C 373.484 100.489,373.755 101.193,374.194 102.053 M21.093 110.306 C 19.359 113.770,18.001 116.665,18.075 116.739 C 18.150 116.814,19.655 113.980,21.421 110.441 C 23.186 106.903,24.544 104.008,24.439 104.008 C 24.333 104.008,22.828 106.842,21.093 110.306 M378.579 110.441 C 380.345 113.980,381.850 116.814,381.925 116.739 C 382.097 116.567,375.819 104.008,375.561 104.008 C 375.456 104.008,376.814 106.903,378.579 110.441 M16.877 119.078 C 16.222 120.516,16.347 120.823,17.055 119.516 C 17.386 118.905,17.583 118.333,17.494 118.243 C 17.404 118.154,17.127 118.530,16.877 119.078 M382.432 118.280 C 382.432 118.495,382.684 119.110,382.991 119.648 C 383.299 120.186,383.550 120.450,383.550 120.235 C 383.550 120.020,383.299 119.404,382.991 118.866 C 382.684 118.328,382.432 118.065,382.432 118.280 M15.704 121.815 C 15.049 123.253,15.174 123.560,15.882 122.253 C 16.213 121.642,16.410 121.070,16.321 120.980 C 16.231 120.891,15.954 121.267,15.704 121.815 M383.605 121.017 C 383.605 121.232,383.857 121.848,384.164 122.385 C 384.472 122.923,384.723 123.187,384.723 122.972 C 384.723 122.757,384.472 122.141,384.164 121.603 C 383.857 121.065,383.605 120.802,383.605 121.017 M11.774 131.813 C 11.533 132.504,11.404 133.138,11.488 133.221 C 11.571 133.305,11.837 132.808,12.078 132.117 C 12.319 131.426,12.447 130.792,12.364 130.708 C 12.280 130.625,12.015 131.122,11.774 131.813 M387.712 131.378 C 387.856 131.916,388.136 132.620,388.336 132.942 C 388.588 133.350,388.618 133.231,388.437 132.551 C 388.293 132.014,388.012 131.310,387.813 130.987 C 387.561 130.580,387.530 130.699,387.712 131.378 M8.435 141.768 C 8.291 142.341,8.248 142.885,8.341 142.977 C 8.433 143.070,8.626 142.676,8.770 142.103 C 8.914 141.530,8.956 140.986,8.864 140.894 C 8.771 140.801,8.578 141.195,8.435 141.768 M391.062 141.153 C 391.062 141.476,391.213 142.092,391.398 142.522 C 391.610 143.015,391.734 143.087,391.734 142.717 C 391.734 142.395,391.583 141.779,391.398 141.349 C 391.186 140.856,391.062 140.784,391.062 141.153 M1.272 176.540 C 1.276 177.400,1.356 177.706,1.450 177.219 C 1.543 176.733,1.540 176.029,1.442 175.655 C 1.344 175.281,1.267 175.679,1.272 176.540 M398.535 176.540 C 398.539 177.400,398.619 177.706,398.713 177.219 C 398.806 176.733,398.802 176.029,398.705 175.655 C 398.607 175.281,398.530 175.679,398.535 176.540 M0.889 180.254 C 0.889 181.222,0.965 181.618,1.058 181.134 C 1.151 180.650,1.151 179.858,1.058 179.374 C 0.965 178.891,0.889 179.286,0.889 180.254 M398.933 180.254 C 398.933 181.222,399.010 181.618,399.103 181.134 C 399.196 180.650,399.196 179.858,399.103 179.374 C 399.010 178.891,398.933 179.286,398.933 180.254 M0.508 184.555 C 0.508 185.738,0.581 186.222,0.671 185.630 C 0.761 185.039,0.761 184.071,0.671 183.480 C 0.581 182.889,0.508 183.372,0.508 184.555 M399.335 184.555 C 399.335 185.738,399.408 186.222,399.498 185.630 C 399.588 185.039,399.588 184.071,399.498 183.480 C 399.408 182.889,399.335 183.372,399.335 184.555 M0.141 191.593 C 0.141 193.636,0.207 194.472,0.287 193.451 C 0.368 192.429,0.368 190.758,0.287 189.736 C 0.207 188.715,0.141 189.550,0.141 191.593 M399.750 191.593 C 399.750 193.636,399.816 194.472,399.896 193.451 C 399.977 192.429,399.977 190.758,399.896 189.736 C 399.816 188.715,399.750 189.550,399.750 191.593 M0.141 208.407 C 0.141 210.450,0.207 211.285,0.287 210.264 C 0.368 209.242,0.368 207.571,0.287 206.549 C 0.207 205.528,0.141 206.364,0.141 208.407 M399.750 208.407 C 399.750 210.450,399.816 211.285,399.896 210.264 C 399.977 209.242,399.977 207.571,399.896 206.549 C 399.816 205.528,399.750 206.364,399.750 208.407 M0.508 215.445 C 0.508 216.628,0.581 217.111,0.671 216.520 C 0.761 215.929,0.761 214.961,0.671 214.370 C 0.581 213.778,0.508 214.262,0.508 215.445 M399.335 215.445 C 399.335 216.628,399.408 217.111,399.498 216.520 C 399.588 215.929,399.588 214.961,399.498 214.370 C 399.408 213.778,399.335 214.262,399.335 215.445 M0.889 219.746 C 0.889 220.714,0.965 221.109,1.058 220.626 C 1.151 220.142,1.151 219.350,1.058 218.866 C 0.965 218.382,0.889 218.778,0.889 219.746 M398.933 219.746 C 398.933 220.714,399.010 221.109,399.103 220.626 C 399.196 220.142,399.196 219.350,399.103 218.866 C 399.010 218.382,398.933 218.778,398.933 219.746 M1.272 223.460 C 1.276 224.321,1.356 224.626,1.450 224.140 C 1.543 223.654,1.540 222.950,1.442 222.576 C 1.344 222.202,1.267 222.600,1.272 223.460 M398.535 223.460 C 398.539 224.321,398.619 224.626,398.713 224.140 C 398.806 223.654,398.802 222.950,398.705 222.576 C 398.607 222.202,398.530 222.600,398.535 223.460 M8.266 257.283 C 8.266 257.605,8.417 258.221,8.602 258.651 C 8.814 259.144,8.938 259.216,8.938 258.847 C 8.938 258.524,8.787 257.908,8.602 257.478 C 8.390 256.985,8.266 256.913,8.266 257.283 M391.230 257.897 C 391.086 258.470,391.044 259.014,391.136 259.106 C 391.229 259.199,391.422 258.805,391.565 258.232 C 391.709 257.659,391.752 257.115,391.659 257.023 C 391.567 256.930,391.374 257.324,391.230 257.897 M11.563 267.449 C 11.707 267.986,11.988 268.690,12.187 269.013 C 12.439 269.420,12.470 269.301,12.288 268.622 C 12.144 268.084,11.864 267.380,11.664 267.058 C 11.412 266.650,11.382 266.769,11.563 267.449 M387.922 267.883 C 387.681 268.574,387.553 269.208,387.636 269.292 C 387.720 269.375,387.985 268.878,388.226 268.187 C 388.467 267.496,388.596 266.862,388.512 266.779 C 388.429 266.695,388.163 267.192,387.922 267.883 M15.277 277.028 C 15.277 277.243,15.528 277.859,15.836 278.397 C 16.143 278.935,16.395 279.198,16.395 278.983 C 16.395 278.768,16.143 278.152,15.836 277.615 C 15.528 277.077,15.277 276.813,15.277 277.028 M384.032 277.827 C 383.377 279.265,383.502 279.572,384.210 278.265 C 384.541 277.654,384.739 277.082,384.649 276.992 C 384.560 276.903,384.282 277.278,384.032 277.827 M16.450 279.765 C 16.450 279.980,16.701 280.596,17.009 281.134 C 17.316 281.672,17.568 281.935,17.568 281.720 C 17.568 281.505,17.316 280.890,17.009 280.352 C 16.701 279.814,16.450 279.550,16.450 279.765 M382.859 280.564 C 382.204 282.002,382.329 282.309,383.037 281.002 C 383.368 280.391,383.566 279.819,383.476 279.729 C 383.387 279.640,383.109 280.015,382.859 280.564 M17.986 283.224 C 17.986 283.650,24.227 295.992,24.443 295.992 C 24.617 295.992,18.507 283.519,18.138 283.122 C 18.054 283.032,17.986 283.078,17.986 283.224 M378.579 289.559 C 376.814 293.097,375.456 295.992,375.561 295.992 C 375.819 295.992,382.097 283.433,381.925 283.261 C 381.850 283.186,380.345 286.020,378.579 289.559 M25.415 297.947 C 25.854 298.807,26.301 299.511,26.409 299.511 C 26.516 299.511,26.245 298.807,25.806 297.947 C 25.368 297.087,24.921 296.383,24.813 296.383 C 24.706 296.383,24.977 297.087,25.415 297.947 M374.194 297.947 C 373.755 298.807,373.484 299.511,373.591 299.511 C 373.699 299.511,374.146 298.807,374.585 297.947 C 375.023 297.087,375.294 296.383,375.187 296.383 C 375.079 296.383,374.632 297.087,374.194 297.947 M28.274 302.835 C 28.604 303.480,29.167 304.360,29.525 304.790 C 29.882 305.220,29.780 304.868,29.297 304.008 C 28.231 302.110,27.433 301.195,28.274 302.835 M371.409 302.737 C 371.153 303.221,370.689 304.057,370.377 304.594 C 369.833 305.532,369.837 305.540,370.468 304.790 C 371.247 303.863,372.341 301.857,372.067 301.857 C 371.961 301.857,371.665 302.253,371.409 302.737 M30.715 306.843 C 32.805 310.064,33.357 310.850,33.528 310.850 C 33.632 310.850,33.403 310.367,33.019 309.775 C 30.929 306.554,30.377 305.767,30.206 305.767 C 30.102 305.767,30.332 306.251,30.715 306.843 M368.642 307.234 C 366.548 310.420,366.290 310.850,366.472 310.850 C 366.643 310.850,367.195 310.064,369.285 306.843 C 369.668 306.251,369.898 305.767,369.794 305.767 C 369.690 305.767,369.172 306.427,368.642 307.234 M35.191 313.587 C 36.067 314.878,36.872 315.934,36.979 315.934 C 37.087 315.934,36.458 314.878,35.582 313.587 C 34.705 312.297,33.900 311.241,33.793 311.241 C 33.685 311.241,34.314 312.297,35.191 313.587 M364.418 313.587 C 363.542 314.878,362.913 315.934,363.021 315.934 C 363.128 315.934,363.933 314.878,364.809 313.587 C 365.686 312.297,366.315 311.241,366.207 311.241 C 366.100 311.241,365.295 312.297,364.418 313.587 M37.990 317.498 C 43.596 325.910,57.619 341.303,67.873 350.301 C 73.309 355.070,83.675 363.245,83.675 362.762 C 83.675 362.660,81.696 361.071,79.277 359.232 C 65.566 348.808,52.318 335.705,42.194 322.555 C 38.037 317.156,36.651 315.488,37.990 317.498 M359.232 320.723 C 348.808 334.434,335.705 347.682,322.555 357.806 C 317.309 361.845,315.261 363.550,317.693 361.853 C 332.259 351.691,351.193 332.780,362.003 317.595 C 364.094 314.658,362.325 316.655,359.232 320.723 M84.066 363.021 C 84.066 363.128,85.122 363.933,86.413 364.809 C 87.703 365.686,88.759 366.315,88.759 366.207 C 88.759 366.100,87.703 365.295,86.413 364.418 C 85.122 363.542,84.066 362.913,84.066 363.021 M313.828 364.219 C 312.778 364.946,311.722 365.752,311.482 366.012 C 311.242 366.271,312.146 365.748,313.490 364.850 C 314.834 363.951,315.934 363.135,315.934 363.035 C 315.934 362.767,315.897 362.788,313.828 364.219 M89.150 366.472 C 89.150 366.643,89.936 367.195,93.157 369.285 C 93.749 369.668,94.233 369.898,94.233 369.794 C 94.233 369.623,93.446 369.071,90.225 366.981 C 89.633 366.597,89.150 366.368,89.150 366.472 M308.499 367.794 C 306.170 369.337,304.838 370.489,306.745 369.312 C 309.947 367.334,311.256 366.373,310.747 366.373 C 310.691 366.373,309.679 367.013,308.499 367.794 M95.210 370.475 C 96.084 371.201,98.561 372.540,97.947 371.955 C 97.732 371.750,96.852 371.186,95.992 370.703 C 95.132 370.220,94.780 370.118,95.210 370.475 M303.711 370.821 C 301.833 371.975,301.308 372.521,302.835 371.732 C 304.060 371.098,305.714 369.918,305.376 369.917 C 305.269 369.917,304.519 370.324,303.711 370.821 M100.489 373.591 C 100.489 373.699,101.193 374.146,102.053 374.585 C 102.913 375.023,103.617 375.294,103.617 375.187 C 103.617 375.079,102.913 374.632,102.053 374.194 C 101.193 373.755,100.489 373.484,100.489 373.591 M297.849 374.220 C 297.043 374.646,296.383 375.082,296.383 375.188 C 296.383 375.295,297.087 375.023,297.947 374.585 C 298.807 374.146,299.511 373.702,299.511 373.599 C 299.511 373.343,299.509 373.344,297.849 374.220 M104.008 375.561 C 104.008 375.819,116.567 382.097,116.739 381.925 C 116.814 381.850,113.980 380.345,110.441 378.579 C 106.903 376.814,104.008 375.456,104.008 375.561 M289.345 378.690 C 285.797 380.495,283.027 381.982,283.191 381.993 C 283.607 382.022,295.992 375.797,295.992 375.560 C 295.992 375.291,296.451 375.075,289.345 378.690 M118.866 382.991 C 119.404 383.299,120.020 383.550,120.235 383.550 C 120.450 383.550,120.186 383.299,119.648 382.991 C 119.110 382.684,118.495 382.432,118.280 382.432 C 118.065 382.432,118.328 382.684,118.866 382.991 M280.352 382.991 C 279.814 383.299,279.550 383.550,279.765 383.550 C 279.980 383.550,280.596 383.299,281.134 382.991 C 281.672 382.684,281.935 382.432,281.720 382.432 C 281.505 382.432,280.890 382.684,280.352 382.991 M121.603 384.164 C 122.141 384.472,122.757 384.723,122.972 384.723 C 123.187 384.723,122.923 384.472,122.385 384.164 C 121.848 383.857,121.232 383.605,121.017 383.605 C 120.802 383.605,121.065 383.857,121.603 384.164 M277.615 384.164 C 277.077 384.472,276.813 384.723,277.028 384.723 C 277.243 384.723,277.859 384.472,278.397 384.164 C 278.935 383.857,279.198 383.605,278.983 383.605 C 278.768 383.605,278.152 383.857,277.615 384.164 M130.987 387.813 C 131.310 388.012,132.014 388.293,132.551 388.437 C 133.231 388.618,133.350 388.588,132.942 388.336 C 132.620 388.136,131.916 387.856,131.378 387.712 C 130.699 387.530,130.580 387.561,130.987 387.813 M267.644 388.088 C 266.666 388.559,266.634 388.613,267.449 388.414 C 268.557 388.143,269.802 387.509,269.208 387.517 C 268.993 387.520,268.289 387.777,267.644 388.088 M141.349 391.398 C 141.779 391.583,142.395 391.734,142.717 391.734 C 143.087 391.734,143.015 391.610,142.522 391.398 C 142.092 391.213,141.476 391.062,141.153 391.062 C 140.784 391.062,140.856 391.186,141.349 391.398 M257.478 391.398 C 256.985 391.610,256.913 391.734,257.283 391.734 C 257.605 391.734,258.221 391.583,258.651 391.398 C 259.144 391.186,259.216 391.062,258.847 391.062 C 258.524 391.062,257.908 391.213,257.478 391.398 M175.860 398.713 C 176.346 398.806,177.050 398.802,177.424 398.705 C 177.798 398.607,177.400 398.530,176.540 398.535 C 175.679 398.539,175.374 398.619,175.860 398.713 M222.781 398.713 C 223.267 398.806,223.971 398.802,224.345 398.705 C 224.719 398.607,224.321 398.530,223.460 398.535 C 222.600 398.539,222.294 398.619,222.781 398.713 M179.374 399.103 C 179.858 399.196,180.650 399.196,181.134 399.103 C 181.618 399.010,181.222 398.933,180.254 398.933 C 179.286 398.933,178.891 399.010,179.374 399.103 M218.866 399.103 C 219.350 399.196,220.142 399.196,220.626 399.103 C 221.109 399.010,220.714 398.933,219.746 398.933 C 218.778 398.933,218.382 399.010,218.866 399.103 M183.480 399.498 C 184.071 399.588,185.039 399.588,185.630 399.498 C 186.222 399.408,185.738 399.335,184.555 399.335 C 183.372 399.335,182.889 399.408,183.480 399.498 M214.370 399.498 C 214.961 399.588,215.929 399.588,216.520 399.498 C 217.111 399.408,216.628 399.335,215.445 399.335 C 214.262 399.335,213.778 399.408,214.370 399.498 M189.945 399.898 C 191.081 399.977,192.840 399.976,193.855 399.896 C 194.869 399.816,193.939 399.751,191.789 399.752 C 189.638 399.753,188.808 399.818,189.945 399.898 M206.549 399.896 C 207.571 399.977,209.242 399.977,210.264 399.896 C 211.285 399.816,210.450 399.750,208.407 399.750 C 206.364 399.750,205.528 399.816,206.549 399.896 " stroke="none" fill="#f3c221" fill-rule="evenodd"></path><path id="path3" d="M183.480 81.990 C 183.856 82.088,184.472 82.088,184.848 81.990 C 185.225 81.892,184.917 81.811,184.164 81.811 C 183.412 81.811,183.104 81.892,183.480 81.990 M207.703 82.011 C 209.573 82.083,212.741 82.083,214.741 82.012 C 216.741 81.941,215.210 81.882,211.339 81.882 C 207.468 81.882,205.832 81.940,207.703 82.011 M180.736 84.457 C 180.736 85.210,180.816 85.518,180.915 85.142 C 181.013 84.765,181.013 84.150,180.915 83.773 C 180.816 83.397,180.736 83.705,180.736 84.457 M180.801 114.565 C 180.801 117.683,180.861 118.959,180.935 117.400 C 181.010 115.841,181.010 113.289,180.935 111.730 C 180.861 110.171,180.801 111.447,180.801 114.565 M234.304 129.423 C 234.304 130.176,234.384 130.484,234.483 130.108 C 234.581 129.731,234.581 129.115,234.483 128.739 C 234.384 128.363,234.304 128.671,234.304 129.423 M177.229 309.567 C 177.824 309.657,178.703 309.654,179.184 309.562 C 179.665 309.469,179.179 309.395,178.104 309.398 C 177.028 309.401,176.635 309.477,177.229 309.567 M208.322 309.575 C 209.458 309.654,211.218 309.654,212.232 309.573 C 213.246 309.493,212.317 309.428,210.166 309.429 C 208.016 309.430,207.186 309.496,208.322 309.575 " stroke="none" fill="#766c27" fill-rule="evenodd"></path><path id="path4" d="" stroke="none" fill="#1cbcec" fill-rule="evenodd"></path></g></svg>